<?xml version="1.0" encoding="utf-8"?>
<svg version="1.1" xmlns:xlink="http://www.w3.org/1999/xlink" width="1561px" height="30px" xmlns="http://www.w3.org/2000/svg">
  <defs>
    <mask fill="white" id="clip480">
      <path d="M 0 30  L 0 0  L 1389.30820054411 0  L 1561 0  L 1561 30  L 1462.11037699184 30  L 0 30  Z " fill-rule="evenodd" />
    </mask>
  </defs>
  <g transform="matrix(1 0 0 1 0 -2180 )">
    <path d="M 0 30  L 0 0  L 1389.30820054411 0  L 1561 0  L 1561 30  L 1462.11037699184 30  L 0 30  Z " fill-rule="nonzero" fill="#f59a23" stroke="none" transform="matrix(1 0 0 1 0 2180 )" />
    <path d="M 0 30  L 0 0  L 1389.30820054411 0  L 1561 0  L 1561 30  L 1462.11037699184 30  L 0 30  Z " stroke-width="2" stroke="#797979" fill="none" transform="matrix(1 0 0 1 0 2180 )" mask="url(#clip480)" />
  </g>
</svg>