<?xml version="1.0" encoding="utf-8"?>
<svg version="1.1" xmlns:xlink="http://www.w3.org/1999/xlink" width="38px" height="38px" xmlns="http://www.w3.org/2000/svg">
  <defs>
    <linearGradient gradientUnits="userSpaceOnUse" x1="36.0350877192985" y1="685.987654320985" x2="72" y2="713.197530864196" id="LinearGradient257">
      <stop id="Stop258" stop-color="#ffca42" offset="0" />
      <stop id="Stop259" stop-color="#fccc51" offset="0.49" />
      <stop id="Stop260" stop-color="#ffbe18" offset="1" />
    </linearGradient>
  </defs>
  <g transform="matrix(1 0 0 1 -34 -682 )">
    <path d="M 53 682  C 63.64 682  72 690.36  72 701  C 72 711.64  63.64 720  53 720  C 42.36 720  34 711.64  34 701  C 34 690.36  42.36 682  53 682  Z " fill-rule="nonzero" fill="url(#LinearGradient257)" stroke="none" />
    <path d="M 53 682.5  C 63.36 682.5  71.5 690.64  71.5 701  C 71.5 711.36  63.36 719.5  53 719.5  C 42.64 719.5  34.5 711.36  34.5 701  C 34.5 690.64  42.64 682.5  53 682.5  Z " stroke-width="1" stroke="#797979" fill="none" />
  </g>
</svg>